<svg width="49" height="48" viewBox="0 0 49 48" fill="none" xmlns="http://www.w3.org/2000/svg">
<g clip-path="url(#clip0_206_2106)">
<path d="M15.3369 0H20.4929V2.156H17.4929V4.312H20.4929V6.468H15.3369V0ZM21.5229 0H26.6809V1.876H23.6809V2.25H26.6809V6.562H21.5229V4.594H24.5229V4.218H21.5229V0ZM27.7129 0H32.8669V1.876H29.8669V2.25H32.8669V6.562H27.7129V4.594H30.7129V4.218H27.7129V0Z" fill="white"/>
<path fill-rule="evenodd" clip-rule="evenodd" d="M24.315 48.0001L10.427 44.1441L6.33301 9.43408H42.333L38.241 44.1401L24.315 48.0001ZM14.427 25.1461L14.809 29.4021H29.563L29.069 34.9221L24.321 36.2061H24.317L19.577 34.9261L19.273 31.5321H14.999L15.595 38.2161L24.315 40.6361L33.049 38.2161L34.113 26.2881L34.217 25.1461L34.985 16.5281H13.661L14.049 20.7861H30.321L29.933 25.1461H14.427Z" fill="white"/>
</g>
<defs>
<clipPath id="clip0_206_2106">
<rect width="48" height="48" fill="white" transform="translate(0.333008)"/>
</clipPath>
</defs>
</svg>
