<svg width="48" height="48" viewBox="0 0 48 48" fill="none" xmlns="http://www.w3.org/2000/svg">
<path d="M10.1602 0H12.3242V2.138H14.3042V0H16.4682V6.472H14.3042V4.306H12.3242V6.472H10.1622V0H10.1602ZM19.3122 2.146H17.4082V0H23.3822V2.146H21.4762V6.472H19.3122V2.146ZM24.3302 0H26.5862L27.9742 2.274L29.3602 0H31.6162V6.472H29.4622V3.264L27.9742 5.566H27.9362L26.4462 3.266V6.472H24.3302V0ZM32.6922 0H34.8582V4.334H37.8982V6.474H32.6922V0Z" fill="white"/>
<path fill-rule="evenodd" clip-rule="evenodd" d="M10.092 44.1441L6 9.43408H42L37.906 44.1401L23.98 48.0001L10.092 44.1441ZM18.366 25.1441L17.978 20.7841H34.268L34.648 16.5281H13.328L14.476 29.4021H29.23L28.736 34.9221L23.988 36.2061H23.984L19.244 34.9261L18.94 31.5321H14.664L15.26 38.2161L23.98 40.6361L32.714 38.2161L33.778 26.2881L33.882 25.1461H18.366V25.1441Z" fill="white"/>
</svg>
