<svg width="49" height="48" viewBox="0 0 49 48" fill="none" xmlns="http://www.w3.org/2000/svg">
<g clip-path="url(#clip0_206_2114)">
<path d="M48.333 23.378C48.333 20.198 44.351 17.184 38.245 15.316C39.655 9.094 39.029 4.142 36.269 2.556C35.6002 2.18144 34.8433 1.9929 34.077 2.01V4.19C34.527 4.19 34.889 4.28 35.193 4.446C36.523 5.21 37.101 8.114 36.651 11.852C36.543 12.772 36.367 13.74 36.151 14.728C34.1063 14.2353 32.031 13.8792 29.939 13.662C28.6927 11.9426 27.333 10.3083 25.869 8.77C29.059 5.806 32.053 4.182 34.089 4.182V2C31.397 2 27.875 3.918 24.313 7.244C20.753 3.94 17.229 2.04 14.539 2.04V4.22C16.565 4.22 19.569 5.836 22.759 8.78C21.389 10.22 20.019 11.852 18.717 13.662C16.6207 13.8767 14.5417 14.2363 12.495 14.738C12.2787 13.8016 12.1085 12.8551 11.985 11.902C11.525 8.162 12.093 5.258 13.415 4.486C13.707 4.31 14.089 4.23 14.539 4.23V2.05C13.719 2.05 12.973 2.226 12.329 2.596C9.57901 4.182 8.96301 9.122 10.381 15.326C4.29501 17.206 0.333008 20.208 0.333008 23.378C0.333008 26.558 4.31501 29.572 10.421 31.438C9.01101 37.662 9.63701 42.614 12.397 44.198C13.033 44.57 13.777 44.746 14.597 44.746C17.289 44.746 20.811 42.828 24.373 39.502C27.933 42.808 31.455 44.706 34.147 44.706C34.9192 44.7223 35.6819 44.5332 36.357 44.158C39.107 42.574 39.723 37.634 38.305 31.43C44.371 29.562 48.333 26.548 48.333 23.378ZM35.593 16.852C35.213 18.1597 34.7725 19.4491 34.273 20.716C33.4553 19.1255 32.5575 17.5775 31.583 16.078C32.973 16.284 34.313 16.538 35.595 16.852H35.593ZM31.113 27.272C30.3805 28.5509 29.5937 29.7981 28.755 31.01C25.8195 31.2687 22.8671 31.2721 19.931 31.02C18.2469 28.6144 16.7741 26.0675 15.529 23.408C16.7722 20.7422 18.2387 18.1864 19.913 15.768C22.8478 15.5087 25.7995 15.5047 28.735 15.756C29.547 16.92 30.341 18.164 31.103 19.476C31.847 20.756 32.523 22.056 33.139 23.368C32.5162 24.6959 31.8403 25.9983 31.113 27.272ZM34.273 26C34.801 27.31 35.253 28.622 35.623 29.894C34.343 30.208 32.991 30.472 31.593 30.676C32.5635 29.1628 33.4579 27.6022 34.273 26ZM24.353 36.44C23.443 35.5 22.533 34.454 21.633 33.308C22.513 33.348 23.413 33.378 24.323 33.378C25.243 33.378 26.153 33.358 27.043 33.308C26.163 34.454 25.253 35.5 24.353 36.44ZM17.073 30.676C15.7245 30.4806 14.3857 30.223 13.061 29.904C13.423 28.642 13.873 27.34 14.381 26.04C14.783 26.82 15.205 27.604 15.665 28.388C16.125 29.17 16.593 29.934 17.073 30.676ZM24.303 10.316C25.213 11.256 26.123 12.302 27.023 13.448C26.143 13.408 25.243 13.378 24.333 13.378C23.413 13.378 22.503 13.398 21.613 13.448C22.493 12.302 23.403 11.256 24.303 10.316ZM17.063 16.08C16.0927 17.5899 15.1983 19.1471 14.383 20.746C13.8694 19.4709 13.4189 18.1713 13.033 16.852C14.313 16.548 15.665 16.284 17.063 16.08ZM8.20901 28.328C4.74501 26.852 2.50501 24.914 2.50501 23.378C2.50501 21.842 4.74501 19.894 8.20901 18.428C9.04901 18.066 9.96901 17.742 10.919 17.44C11.477 19.356 12.211 21.352 13.119 23.398C12.2617 25.3224 11.5367 27.303 10.949 29.326C10.0199 29.0383 9.10548 28.7053 8.20901 28.328ZM13.473 42.308C12.143 41.548 11.565 38.64 12.015 34.904C12.123 33.984 12.299 33.014 12.515 32.026C14.431 32.496 16.525 32.858 18.727 33.094C19.9734 34.8134 21.333 36.4477 22.797 37.986C19.607 40.95 16.613 42.574 14.577 42.574C14.1929 42.5782 13.8137 42.4875 13.473 42.31V42.308ZM36.681 34.854C37.141 38.592 36.573 41.498 35.251 42.27C34.959 42.446 34.577 42.524 34.127 42.524C32.101 42.524 29.097 40.91 25.907 37.964C27.3649 36.4321 28.7154 34.8016 29.949 33.084C32.0453 32.8693 34.1243 32.5097 36.171 32.008C36.397 32.996 36.571 33.944 36.681 34.854ZM40.447 28.328C39.607 28.69 38.687 29.014 37.737 29.316C37.139 27.2826 36.4039 25.2921 35.537 23.358C36.437 21.324 37.159 19.338 37.707 17.43C38.6391 17.7186 39.5568 18.0517 40.457 18.428C43.921 19.904 46.161 21.842 46.161 23.378C46.151 24.914 43.911 26.862 40.447 28.328Z" fill="white"/>
<path d="M24.3226 27.8498C25.5086 27.8498 26.6461 27.3786 27.4848 26.5399C28.3234 25.7013 28.7946 24.5638 28.7946 23.3778C28.7946 22.1917 28.3234 21.0542 27.4848 20.2156C26.6461 19.3769 25.5086 18.9058 24.3226 18.9058C23.1365 18.9058 21.9991 19.3769 21.1604 20.2156C20.3217 21.0542 19.8506 22.1917 19.8506 23.3778C19.8506 24.5638 20.3217 25.7013 21.1604 26.5399C21.9991 27.3786 23.1365 27.8498 24.3226 27.8498Z" fill="white"/>
</g>
<defs>
<clipPath id="clip0_206_2114">
<rect width="48" height="48" fill="white" transform="translate(0.333008)"/>
</clipPath>
</defs>
</svg>
