<svg width="48" height="48" viewBox="0 0 48 48" fill="none" xmlns="http://www.w3.org/2000/svg">
<path fill-rule="evenodd" clip-rule="evenodd" d="M16.8301 0C11.9361 0 8.00013 4.106 8.00013 9.136C8.00013 12.194 9.45613 14.91 11.6941 16.568C10.5407 17.4322 9.60575 18.5546 8.96426 19.8452C8.32276 21.1358 7.99257 22.5588 8.00013 24C8.00013 27.06 9.45613 29.774 11.6941 31.432C10.5407 32.2962 9.60575 33.4186 8.96426 34.7092C8.32276 35.9998 7.99257 37.4228 8.00013 38.864C8.00013 43.894 11.9361 48 16.8301 48C21.7221 48 25.6601 43.894 25.6601 38.864V31.14C27.2068 32.4296 29.1564 33.1365 31.1701 33.138C36.0641 33.136 40.0001 29.03 40.0001 24C40.0082 22.5587 39.6782 21.1356 39.0366 19.8449C38.3951 18.5542 37.4599 17.4318 36.3061 16.568C37.4596 15.7038 38.3945 14.5814 39.036 13.2908C39.6775 12.0002 40.0077 10.5772 40.0001 9.136C40.0001 4.106 36.0641 0 31.1701 0H16.8301ZM11.3181 9.136C11.3181 5.954 13.8021 3.406 16.8301 3.406H22.3401V14.866H16.8301C13.8021 14.866 11.3181 12.316 11.3181 9.136ZM31.1701 14.864H25.6601V3.404H31.1701C34.2001 3.404 36.6821 5.954 36.6821 9.136C36.6821 12.316 34.2001 14.864 31.1701 14.864ZM11.3201 24C11.3201 20.82 13.8041 18.27 16.8321 18.27H22.3421V29.73H16.8301C13.8001 29.73 11.3181 27.18 11.3181 24H11.3201ZM25.6601 24C25.6601 20.82 28.1441 18.27 31.1721 18.27C34.2021 18.27 36.6841 20.818 36.6841 24C36.6841 27.18 34.2021 29.73 31.1721 29.73C28.1441 29.73 25.6621 27.182 25.6621 24H25.6601ZM11.3201 38.864C11.3201 35.684 13.8041 33.136 16.8321 33.136H22.3421V38.864C22.3421 42.046 19.8621 44.594 16.8321 44.594C13.8041 44.594 11.3201 42.046 11.3201 38.864Z" fill="white"/>
</svg>
