<svg width="49" height="48" viewBox="0 0 49 48" fill="none" xmlns="http://www.w3.org/2000/svg">
<g clip-path="url(#clip0_206_2109)">
<path fill-rule="evenodd" clip-rule="evenodd" d="M0.666992 0H48.667V48H0.666992V0ZM37.361 40.24C35.135 40.24 33.877 39.08 32.911 37.5L29.245 39.63C30.569 42.246 33.275 44.242 37.465 44.242C41.749 44.242 44.939 42.018 44.939 37.956C44.939 34.19 42.775 32.516 38.943 30.87L37.815 30.388C35.879 29.548 35.041 29.002 35.041 27.648C35.041 26.554 35.881 25.716 37.201 25.716C38.495 25.716 39.329 26.262 40.103 27.648L43.615 25.394C42.129 22.78 40.069 21.782 37.201 21.782C33.173 21.782 30.595 24.358 30.595 27.742C30.595 31.412 32.755 33.15 36.011 34.536L37.139 35.02C39.197 35.92 40.423 36.468 40.423 38.014C40.423 39.306 39.229 40.24 37.361 40.24ZM19.881 40.21C18.331 40.21 17.685 39.15 16.977 37.89L13.305 40.114C14.369 42.366 16.461 44.234 20.071 44.234C24.069 44.234 26.807 42.108 26.807 37.438V22.038H22.297V37.378C22.297 39.632 21.361 40.21 19.879 40.21H19.881Z" fill="white"/>
</g>
<defs>
<clipPath id="clip0_206_2109">
<rect width="48" height="48" fill="white" transform="translate(0.666992)"/>
</clipPath>
</defs>
</svg>
