<svg width="49" height="48" viewBox="0 0 49 48" fill="none" xmlns="http://www.w3.org/2000/svg">
<g clip-path="url(#clip0_206_2119)">
<path d="M24.667 11C11.209 11 0.666992 16.71 0.666992 24C0.666992 31.29 11.209 37 24.667 37C38.125 37 48.667 31.29 48.667 24C48.667 16.71 38.125 11 24.667 11ZM22.175 15H24.795L23.963 19H26.303C27.787 19 28.783 19.208 29.351 19.726C29.905 20.238 30.073 21.078 29.851 22.222L28.811 27H26.147L27.105 22.582C27.221 21.976 27.175 21.554 26.971 21.332C26.769 21.11 26.323 21 25.655 21H23.557L22.291 27H19.667L22.175 15ZM10.667 19H15.999C18.541 19 20.081 20.704 19.479 23.246C18.779 26.2 16.907 27 13.459 27H11.811L11.289 30H8.63899L10.667 19ZM31.667 19H36.999C39.541 19 41.081 20.704 40.479 23.246C39.779 26.2 37.905 27 34.459 27H32.811L32.289 30H29.639L31.667 19ZM12.937 21L12.183 25H13.893C15.373 25 16.749 24.832 16.979 22.624C17.065 21.77 16.709 21 14.999 21H12.937ZM33.937 21L33.183 25H34.893C36.373 25 37.749 24.832 37.979 22.624C38.065 21.77 37.711 21 35.999 21H33.937Z" fill="white"/>
</g>
<defs>
<clipPath id="clip0_206_2119">
<rect width="48" height="48" fill="white" transform="translate(0.666992)"/>
</clipPath>
</defs>
</svg>
