<svg width="48" height="48" viewBox="0 0 48 48" fill="none" xmlns="http://www.w3.org/2000/svg">
<g clip-path="url(#clip0_206_2129)">
<path d="M32.813 11.3518C32.579 11.3518 32.423 11.3833 32.2655 11.4223V11.4463H32.2895C32.399 11.6488 32.579 11.8063 32.7185 11.9938C32.828 12.2053 32.921 12.4228 33.023 12.6343L33.0545 12.6028C33.242 12.4693 33.3365 12.2593 33.3365 11.9383C33.2585 11.8438 33.242 11.7433 33.173 11.6563C33.095 11.5228 32.9225 11.4538 32.813 11.3518ZM11.54 37.7413H9.68895C9.6329 34.795 9.45324 31.8525 9.15045 28.9213H9.13545L6.31545 37.7413H4.90095L2.10345 28.9213H2.07945C1.86205 31.8568 1.73199 34.7981 1.68945 37.7413H0.00195312C0.0933274 34.0425 0.36716 30.3505 0.822453 26.6788H3.11895L5.79045 34.8043H5.80545L8.50095 26.6788H10.688C11.1725 30.7108 11.462 34.3978 11.5475 37.7413H11.54ZM19.571 29.5783C18.821 33.6718 17.8205 36.6493 16.595 38.5003C15.626 39.9298 14.5715 40.6483 13.4225 40.6483C13.118 40.6483 12.743 40.5538 12.29 40.3663V39.3823C12.5165 39.4138 12.7745 39.4363 13.064 39.4363C13.6025 39.4363 14.033 39.2803 14.3615 38.9908C14.7515 38.6308 14.948 38.2258 14.948 37.7803C14.948 37.4683 14.7995 36.8428 14.4875 35.8903L12.464 29.5783H14.285L15.7385 34.2973C16.067 35.3758 16.208 36.1183 16.145 36.5473C16.949 34.4218 17.504 32.0938 17.8175 29.5783H19.571ZM44.2265 37.7413H38.9615V26.6788H40.7345V36.3823H44.2265V37.7413ZM37.586 38.0083L35.555 37.0078C35.735 36.8593 35.906 36.6958 36.0635 36.5083C36.9305 35.5003 37.361 33.9928 37.361 32.0083C37.361 28.3438 35.924 26.5168 33.0485 26.5168C31.6415 26.5168 30.5405 26.9773 29.7515 27.9073C28.892 28.9228 28.454 30.4228 28.454 32.3998C28.454 34.3453 28.8365 35.7673 29.603 36.6808C30.3065 37.4938 31.361 37.9078 32.7755 37.9078C33.299 37.9078 33.7835 37.8448 34.2215 37.7128L36.8705 39.2593L37.5965 38.0098L37.586 38.0083ZM31.001 35.5228C30.548 34.8043 30.329 33.6478 30.329 32.0533C30.329 29.2648 31.1735 27.8743 32.8685 27.8743C33.752 27.8743 34.4075 28.2103 34.8215 28.8748C35.267 29.6008 35.4935 30.7423 35.4935 32.3203C35.4935 35.1253 34.6415 36.5398 32.954 36.5398C32.063 36.5398 31.415 36.2038 30.9935 35.5393L31.001 35.5228ZM27.6875 34.6798C27.6875 35.6173 27.344 36.3913 26.648 36.9838C25.961 37.5853 25.046 37.8898 23.882 37.8898C22.796 37.8898 21.7565 37.5463 20.7335 36.8578L21.2105 35.9053C22.085 36.3433 22.874 36.5623 23.594 36.5623C24.2585 36.5623 24.782 36.4138 25.157 36.1243C25.532 35.8273 25.7585 35.4133 25.7585 34.8898C25.7585 34.2328 25.298 33.6703 24.461 33.2023C23.687 32.7733 22.133 31.8898 22.133 31.8898C21.2885 31.2733 20.8745 30.6163 20.8745 29.5303C20.8745 28.6318 21.1865 27.9133 21.812 27.3658C22.445 26.8033 23.249 26.5303 24.2495 26.5303C25.2448 26.5216 26.2206 26.8071 27.0545 27.3508L26.6255 28.3033C25.9552 28.0081 25.2322 27.8515 24.5 27.8428C23.93 27.8428 23.492 27.9838 23.1875 28.2568C22.883 28.5298 22.6955 28.8733 22.6955 29.3038C22.6955 29.9608 23.165 30.5233 24.023 31.0063C24.812 31.4353 26.3975 32.3428 26.3975 32.3428C27.2645 32.9518 27.695 33.6088 27.695 34.6783L27.6875 34.6798ZM46.4465 22.9693C45.3755 22.9453 44.5475 23.0548 43.853 23.3518C43.658 23.4298 43.337 23.4298 43.3055 23.6803C43.415 23.7898 43.43 23.9623 43.5245 24.1093C43.688 24.3748 43.9625 24.7348 44.2205 24.9223C44.5025 25.1413 44.783 25.3603 45.0725 25.5478C45.596 25.8688 46.1825 26.0563 46.697 26.3758C46.9865 26.5633 47.2835 26.8048 47.5715 27.0013C47.72 27.1033 47.813 27.2833 48.0005 27.3448V27.3058C47.906 27.1888 47.8835 27.0163 47.789 26.8768C47.6555 26.7433 47.5235 26.6263 47.39 26.4943C46.9988 25.9749 46.5297 25.519 45.9995 25.1428C45.5705 24.8533 44.633 24.4468 44.4605 23.9548L44.4365 23.9233C44.726 23.8993 45.0695 23.7898 45.35 23.7118C45.803 23.5948 46.2245 23.6173 46.694 23.5003C46.9093 23.4444 47.1229 23.3819 47.3345 23.3128V23.1958C47.093 22.9543 46.913 22.6258 46.6625 22.3993C45.9722 21.7953 45.2354 21.2466 44.459 20.7583C44.0375 20.4853 43.5065 20.3128 43.061 20.0863C42.905 20.0083 42.632 19.9693 42.545 19.8358C42.3035 19.5388 42.1625 19.1563 41.99 18.8038C41.5976 18.0412 41.2328 17.2647 40.8965 16.4758C40.655 15.9523 40.514 15.4363 40.217 14.9518C38.8415 12.6778 37.3415 11.3038 35.045 9.95228C34.553 9.67028 33.959 9.55328 33.3335 9.40478C32.9975 9.38978 32.669 9.36578 32.333 9.35078C32.114 9.25628 31.904 9.00728 31.7165 8.88128C30.9515 8.39678 28.982 7.35728 28.427 8.73278C28.067 9.60728 28.958 10.4593 29.2715 10.8973C29.498 11.2093 29.7875 11.5543 29.951 11.8978C30.0455 12.1318 30.068 12.3748 30.1625 12.6163C30.374 13.2028 30.5765 13.8583 30.8585 14.4058C31.007 14.6878 31.163 14.9833 31.3505 15.2338C31.46 15.3823 31.6475 15.4453 31.6865 15.6868C31.499 15.9598 31.484 16.3588 31.382 16.6873C30.8975 18.2023 31.085 20.0698 31.7645 21.1873C31.9835 21.5233 32.4905 22.2583 33.1715 21.9763C33.773 21.7348 33.641 20.9758 33.812 20.3038C33.851 20.1403 33.827 20.0383 33.9065 19.9288V19.9603C34.1015 20.3353 34.289 20.6953 34.4615 21.0703C34.868 21.7273 35.594 22.4068 36.1955 22.8598C36.5165 23.1013 36.7655 23.5168 37.1645 23.6638V23.6248H37.133C37.0475 23.5078 36.938 23.4523 36.8285 23.3593C36.5751 23.1083 36.34 22.8397 36.125 22.5553C35.57 21.8053 35.0705 20.9773 34.6325 20.1253C34.4215 19.7043 34.2288 19.2744 34.055 18.8368C33.977 18.6808 33.977 18.4378 33.8435 18.3598C33.641 18.6493 33.344 18.8983 33.203 19.2658C32.945 19.8358 32.921 20.5468 32.8205 21.2818C32.774 21.2968 32.7965 21.2818 32.774 21.3133C32.345 21.2038 32.1965 20.7658 32.039 20.3908C31.6325 19.4383 31.5695 17.9143 31.9145 16.8208C32.009 16.5388 32.4065 15.6568 32.2505 15.3913C32.165 15.1333 31.8995 14.9848 31.7585 14.7823C31.5785 14.5318 31.3985 14.2123 31.274 13.9303C30.953 13.1803 30.797 12.3523 30.446 11.6023C30.29 11.2588 30.008 10.8988 29.7815 10.5793C29.5235 10.2193 29.243 9.96278 29.0465 9.53978C28.976 9.39128 28.883 9.14978 28.9925 8.99228C29.0165 8.88278 29.0705 8.84378 29.18 8.81228C29.3525 8.66378 29.852 8.85128 30.0245 8.93678C30.5165 9.13178 30.9305 9.31928 31.3445 9.60128C31.532 9.73478 31.7345 9.98378 31.9775 10.0543H32.2595C32.6885 10.1488 33.1655 10.0783 33.5645 10.2028C34.2755 10.4293 34.916 10.7578 35.4935 11.1163C37.2595 12.25 38.6957 13.829 39.6575 15.6943C39.821 15.9988 39.8915 16.2808 40.04 16.6003C40.313 17.2648 40.6655 17.9278 40.946 18.5608C41.2265 19.1938 41.4935 19.8343 41.8985 20.3578C42.101 20.6398 42.899 20.7868 43.265 20.9278C43.5305 21.0523 43.9445 21.1618 44.1785 21.3028C44.639 21.5848 45.092 21.9043 45.5225 22.2163C45.7415 22.3648 46.406 22.7008 46.445 22.9663L46.4465 22.9693Z" fill="white"/>
</g>
<defs>
<clipPath id="clip0_206_2129">
<rect width="48" height="48" fill="white"/>
</clipPath>
</defs>
</svg>
