<svg width="24" height="24" viewBox="0 0 24 24" fill="none" xmlns="http://www.w3.org/2000/svg">
<path d="M6 16.8304L10.1952 11.6944L6.5952 7H10.0128L11.9904 9.64L13.968 7H17.3856L13.7856 11.6944L17.9808 16.8304H14.448L11.9904 13.72L9.5328 16.8304H6Z" fill="#002D4E"/>
<path class="cross" fill-rule="evenodd" clip-rule="evenodd" d="M21.5 21.5L21.5 2.5L2.5 2.5L2.5 21.5L21.5 21.5ZM2 24L22 24C23.1046 24 24 23.1046 24 22L24 2C24 0.89543 23.1046 8.97416e-07 22 9.45698e-07L2 -8.74228e-08C0.89543 -3.91405e-08 -1.00993e-06 0.89543 -9.61651e-07 2L-8.74228e-08 22C-3.91405e-08 23.1046 0.895431 24 2 24Z" fill="#002D4E"/>
</svg>
