<svg xmlns="http://www.w3.org/2000/svg" xmlns:xlink="http://www.w3.org/1999/xlink" viewBox="0 0 1000 100">
  <g id="clouds-bottom" style="isolation: isolate">
    <path d="M475,100H111V97c2.39-1.56,2.92-2.92,6-4,6.69-5.35,17.41.2,24,1V91c2.07-1.28,2.3-2.08,5-3,3.11-2,13.46,0,18,0-.14-3.67-.43-8.88,1-11,3.32-10.49,11.41-11.52,26-11,1.76,1.5,7.65,4.54,8,4,12.15-8.12,14.08-5.7,31-5l1-3c-1.75-2.64-1.13-9.69-1-14,6.14-4.13,8.41-6.17,20-6,5.52-17.19,45.23-23.19,52-3,6,7.43-2.07,16.57-3,24,5.76,1.78,11.91,2.52,14,8,2.3,2.52,2.16,6.92,2,12a179.27,179.27,0,0,1,19,6c2.64-7.78,22.93-21.91,37-18,4.24,1.18,9.51,6.23,13,5,3.57-5.41,3.6-9.49,9-13,6.85-5.47,21.9-2.27,32-2,2.84,3.65,8.27,5.22,11,9,2.4,3.32,2.38,8.88,6,11,3.09-2.1,8.5-.53,12,0,2.53,3.87,4.94,6.11,7,11a43.9,43.9,0,0,1,14,2Z" fill="#ffffff" fill-rule="evenodd"/>
    <path d="M986,100H757V99c.8-1,.35-.27,1-2l4-3c8.56-6.39,21.29.94,27,3,0,0,18.33-6.94,20-8-1.29-3.75-.4-6.59,0-11,4.7-3.48,6.67-7.88,14-9,.33-3.49,2.31-4.56,2-7-.09-.67-2.73-3.31-3-4q-.5-6-1-12c3.27-3.62,4.9-9.28,9-12,10.85-7.2,34.75-3.83,41,5,2,2.9,2,7.13,4,10,9.16-6.16,16.48,6.43,20,10-.1,5.38-.9,9.8,0,13,5.91-3.34,17.76-4.26,25-1,1,.47,3.28,3.83,4,4,2.45.59,3.91-2.55,6-3,13.14-2.8,25.83,2.39,30,9,1.78,2.82,1.25,7.41,3,10,1.18.8,1.68.77,4,1,1.23.47,8.82-.89,14-1C982.7,94.73,985.05,95.05,986,100Z" fill="#ffffff" fill-rule="evenodd"/>
    <path d="M548,88V78c4.28-2.86,5.85-4.14,14-4,4.57,4.57,14-5.5,27-2,7.27,2,9.94,8.53,17,10,4.39-4.24,20.55-6.17,27-2l8,10,12,1,9,8v1H510V98l3-1c3.91-3.18,15.19-4.08,21-2,1.08-4.11,2.64-4.49,5-7Z" fill="#ffffff" fill-rule="evenodd"/>
    <path d="M0,100C.15,89.84,6.7,75.2,20,79c6.17,1.76,7.73,8.6,11,10,1.74.75,4.91-2,8-1,2.07.68,4.41,4.4,6,5l10-1c6.42,2,16.73,3.84,28,4,1,1.77,1.26,1.68,2,4Z" fill="#ffffff" fill-rule="evenodd"/>
    <path d="M1000,94v6H989V99h1C992.18,95.75,994.81,94.34,1000,94Z" fill="#ffffff" fill-rule="evenodd"/>
    <path d="M679,95c6.54-.25,10.31.5,13,4h1v1H675V99c.8-1,.35-.27,1-2A10.92,10.92,0,0,0,679,95Z" fill="#ffffff" fill-rule="evenodd"/>
    <path d="M732,95c9-.25,12.76,1.31,18,4v1H726V99h1C728.44,97.18,730.39,96.58,732,95Z" fill="#ffffff" fill-rule="evenodd"/>
  </g>

</svg>
