<svg xmlns="http://www.w3.org/2000/svg" xmlns:xlink="http://www.w3.org/1999/xlink" viewBox="0 0 1000 100">
  <g id="clouds-top" style="isolation: isolate">
    <path d="M491,54h4l5,8h7c2.28,1.31,3.85,6.88,6,8l10,1c1.74,3.75,3.34,6.87,4,12-3.09,3.06-3.07,5.4-9,6-5.59,3.46-9.41-3.26-14-2-3.14.87-3.42,4.51-10,4l-9-2c-1.94,1-3.65,6.71-6,8-9.89,5.43-20.72,0-26-5-3.62,3.19-8.55-.07-14,2-2.11.8-5.26,4.2-8,5-10.43,3-26-.55-33-5-2.49-1.58-4.61-6.85-7-8H380c-2.31-.77-5.16-3.55-7-5-4.89,6.35-16.14,5.53-23,2-1.4-.72-1.19-1.59-2,0-3.37,2.47-6.81,7.49-11,9-9.76.82-13.89-.42-18-5-.33-1-.67-2-1-3-1.28-.56-3.9,4-13,1-6-8-2.93-19.37,6-22,3.43-1,6.94,1.61,9,1,4.54-1.35,11-11.45,21-9,2.75.67,5.08,3,8,4,1.28-1.83,2-1.71,3-4-9.91-3.07-15.15-3.1-12-18,1.2-2.68.44-13.07,2-17,2.51-1.42,5.14-4.15,8-5,3.27-1,6.8.42,9-1,2.92-3.81,2.85-7.22,8-9,2.67-1.8,9.32.69,11,0,3.44-1.42,10-6.92,16-3,4.59,1.34,7,4,9,8,22.89-9.86,30.05,2.77,40,15,14.78-12.45,43.62-1.93,48,12Z" fill="#f4f1ed" fill-rule="evenodd"/>
    <path d="M787,18c13.59-.25,23.09,1.83,27,11,1.54,3.62,1,8,3,11,3.63-2.45,12-.58,16,0,1.55,2.47,4.56,3.77,6,6,4.6,7.13,1.11,12.9,10,17,3.86-2.57,20.69,6.49,22,10,1,1.42,1,3.27,1,6-2.28,1.22-2.25,1.64-6,2-1.79,1.1-17.45,2.11-23,2l-5-1c-1.93.63-4.45,5.16-7,6-9.26,3-19.76-5-23-4-.94.29-2.71,3.56-4,4-6,2-14.45-.9-17-3-5.46,1.46-11.22,7.49-21,5-5.46-1.39-10.82-7.18-14-8-2.34-.61-5.33,2.55-7,3-6.11,1.65-10.71-1.34-15-2-5.61,9.08-16.16,6.82-26,4a25,25,0,0,0-4-5c-.22-8.45,1.09-12,5-16l3-1c4-6.14-3.15-10.31,8-14,4.25-3.29,22.49-2.11,30-2,3.2-7.36,11.46-15.56,22-12C769.62,24.48,778.83,23.85,787,18Z" fill="#f4f1ed" fill-rule="evenodd"/>
    <path d="M176,40h8a57.43,57.43,0,0,0,5,7c2.61-3,12-8.15,18-4,4.94,1.57,5.3,6.24,9,8,6.26,3,13.06-.91,20,2,2.61,1.1,3.92,5.89,6,7,6.74,3.6,10.66-3,14,6,1.05,1.55,1,4.09,1,7-3.09,2.06-2.93,3.46-8,4,.06,2.9.05,5.47-1,7-1.08,3.44-2.6,4.88-6,6-6.58,5-18,.62-23-2-5.25,3.43-13.31,9.54-24,7-5.43-1.29-13.92-7.07-22-4-.5.19-2.27,2.75-3,3-10.44,3.62-22.72-2.85-29-4-4.61-.84-13.55,4.12-21,2-5.2-1.48-8.76-6.22-13-8H98c-12.27-.12-18.14-3.26-18-16,1.68-1.27,2.32-2.73,4-4,3.84-3,11.43-3.92,18-4-.09-3.09-.14-6.33,1-8,2.49-7.45,11.07-10.12,21-10,2.19,0,8.92,2.06,9,2,1.31-1,2.28-4.24,4-5h7c1.46-.83.89-3.76,2-5,1.81-2,5.08-3.05,7-5,5.87-.22,12.71-.45,16,2,3.44,1.08,4.88,2.6,6,6C175.75,38.07,175.6,38,176,40Z" fill="none" fill-rule="evenodd"/>
    <path d="M670,70c7,.24,4.48,2.62,8,5,7.73,5.22,17.39-4,18,11h-1v1c-6.32.46-11.57,4.12-17,6-9.34,3.23-19.42-2.86-24-5-5.28-2.47-7.89,3.16-10,4-6.92,2.76-15.38,0-22,0-1.44-2.67-2-4.22-2-9,1.77-1,1.68-1.26,4-2,1.07-.75,1-.6,3-1V76c2.67-1.44,4.22-2,9-2V70c2.09-1.12,1.83-1.43,5-2V63c3.93-2.64,4.61-4,12-4,3.31,4.79,8.8,2.77,16,4v2C669.88,66.29,669.89,67.47,670,70Z" fill="#f4f1ed" fill-rule="evenodd"/>
  </g>
  <g id="shadow">
    <image id="shadow_Image" data-name="shadow Image" width="801" height="100" transform="translate(71)" xlink:href="img/clouds-top1.png"/>
  </g>
</svg>
