<svg id="Layer_1" data-name="Layer 1" xmlns="http://www.w3.org/2000/svg" xmlns:xlink="http://www.w3.org/1999/xlink" viewBox="0 0 750 500">
  <defs>
    <radialGradient id="radial-gradient" cx="494.9" cy="359.5" fy="219.56317145682826" r="238.48" gradientTransform="translate(989.03 479.54) rotate(-179.63) scale(1 0.33)" gradientUnits="userSpaceOnUse">
      <stop offset="0" stop-color="#575756"/>
      <stop offset="0.03" stop-color="#808262"/>
      <stop offset="0.36" stop-color="#a2a789"/>
      <stop offset="0.96" stop-color="#dde6cb"/>
    </radialGradient>
  </defs>
  <g>
    <g>
      <polygon points="13.59 164 108.68 410.2 494.83 298.46 398.93 50.76 13.59 164" fill="#7f8c6f"/>
      <polygon points="108.68 410.2 246.03 180.44 494.83 298.46 108.68 410.2" fill="#6c775d"/>
      <path d="M59.37,214.86s183.07,81.25,194.84,85.95c35.25,16.43,35.25,16.43,51.68-15.27,25.83-47,86.9-163.34,86.9-163.34s23.17-27.44,11-59c-8-20.58-4.83-12.48-4.83-12.48L13.59,164l6.57,17S34.72,205.72,59.37,214.86Z" fill="#5c6651"/>
    </g>
    <g>
      <path d="M494.84,450.81c-257.55,0-238.43-89.74-238.43-89.74h0c-.57,11,7.15,23.26,28.32,36.39,89.61,55.56,266.09,39.91,266.09,39.91s120.75-4.3,172-53.35c10.44-10,13.47-19.23,11.63-27.64H735S769.46,447.68,494.84,450.81Z" fill="#5c6651"/>
      <path d="M722.88,384c-51.27,49.05-172,53.35-172,53.35S374.38,453,284.77,397.46c-21.17-13.13-28.89-25.36-28.32-36.39,1.79-35.64,90.08-58.67,90.08-58.67s293-1.33,296.58,0c2.83,1.07,84.27,21.1,91.4,54C736.35,364.79,733.32,374,722.88,384Z" fill="url(#radial-gradient)"/>
      <path d="M712.07,223.55c-25.82-18.79-41.87-3.14-47.34,0,0-10.43-.64-12.83-1.11-13.19-.27-.2-.48.27-.48.27l-.13-2.87h0s-4.93-37.42-154.41-43.29c-94.69-3.91-144.78,18.39-144.78,18.39s-29.56,8.66-36.34,22.65a42.42,42.42,0,0,0-.51,4.82c-.12,2.57-.19,5.11-.19,7.62,0,31.46,9.19,58,28,92.32,20.35,37,67.7,61.2,67.7,61.2s-3.92,6.65-3.92,12.13c3.14,12.91,14.48,26.22,76.46,26.61s75-22.31,75.37-26.61-3.91-9-7-13.31c21.52-3.13,45.78-28.95,45.78-28.95s3.91,3.91,10.57-2.35,15.26-9,30.52-14.48,26.21-18.78,31.3-27.78c3.91-6.92,18.22-15.91,24.63-19.71a19.66,19.66,0,0,0,6-5.51C718.72,262.39,732.64,238.5,712.07,223.55Zm-2,26.37s-4.31,17.06-19.18,22.93-16,16-16,16-11.48,20.48-42.52,24.92c0,0,21-33.66,25-58.7,3.65-.39,11.22-1.83,14.74-16.17s18.78-17,30.13-9.13S710.12,249.92,710.12,249.92Z" fill="#d8e0af"/>
      <path d="M633,238.41q-2.53,1.25-5.24,2.4c-38.21,16.45-100,21.08-132.11,21.08-33.65,0-69.65-2.74-95.09-8.21-19.14-4.45-33.65-8.67-44.55-12.87-19-7.31-27-14.57-29.27-22.87a22.67,22.67,0,0,1-.65-7.57,13.19,13.19,0,0,1,1.35-4.87c6.78-14,36.34-22.65,36.34-22.65s50.09-22.3,144.78-18.39C658.07,170.33,663,207.75,663,207.75h0a5.86,5.86,0,0,1,.61,2.6C663.78,214.89,660.36,225,633,238.41Z" fill="#b4ba8a"/>
      <path d="M627.79,240.81c-38.21,16.45-100,21.08-132.11,21.08-33.65,0-69.65-2.74-95.09-8.21-19.14-4.45-33.65-8.67-44.55-12.87C433.2,201.68,579,211.07,627.79,240.81Z" fill="#835353"/>
    </g>
  </g>
</svg>
