<svg width="314" height="209" viewBox="0 0 314 209" fill="none" xmlns="http://www.w3.org/2000/svg">
<rect width="312.789" height="209" transform="translate(0.605469)" fill="white"/>
<path d="M6.27246 68.5521L45.9299 171.464L206.975 124.756L166.979 21.2178L6.27246 68.5521Z" fill="#018FD1"/>
<path d="M45.9297 171.463L103.212 75.4238L206.974 124.756L45.9297 171.463Z" fill="#014281"/>
<path d="M25.3651 89.8118C25.3651 89.8118 101.715 123.774 106.624 125.739C121.325 132.607 121.325 132.607 128.177 119.356C138.949 99.7101 164.419 51.0799 164.419 51.0799C164.419 51.0799 174.082 39.61 169.006 26.4179C165.67 17.8155 166.992 21.2013 166.992 21.2013L6.27246 68.5523L9.01249 75.6583C9.01249 75.6583 15.0848 85.9913 25.3651 89.8118Z" fill="#052C51"/>
<path d="M206.978 188.439C99.5665 188.439 107.541 150.927 107.541 150.927C107.303 155.525 110.522 160.65 119.351 166.138C156.723 189.362 230.325 182.821 230.325 182.821C230.325 182.821 280.684 181.023 302.058 160.52C306.412 156.34 307.675 152.482 306.908 148.967H307.137C307.137 148.967 321.509 187.13 206.978 188.439Z" fill="#A7BAC3"/>
<path d="M302.083 160.512C280.7 181.015 230.35 182.812 230.35 182.812C230.35 182.812 156.74 189.354 119.368 166.138C110.539 160.65 107.319 155.537 107.557 150.927C108.304 136.029 145.125 126.403 145.125 126.403C145.125 126.403 267.321 125.847 268.814 126.403C269.995 126.85 303.959 135.223 306.933 148.975C307.7 152.482 306.437 156.332 302.083 160.512Z" fill="url(#paint0_radial_206_2136)"/>
<path d="M297.575 93.4439C286.806 85.5897 280.113 92.1314 277.831 93.4439C277.831 89.0841 277.565 88.0809 277.369 87.9305C277.256 87.8469 277.168 88.0433 277.168 88.0433L277.114 86.8437C277.114 86.8437 275.058 71.2021 212.717 68.7484C173.226 67.1141 152.336 76.4355 152.336 76.4355C152.336 76.4355 140.008 80.0553 137.181 85.9032C137.071 86.5701 137 87.2428 136.968 87.9179C136.918 88.9922 136.889 90.0539 136.889 91.1031C136.889 104.253 140.721 115.347 148.566 129.693C157.053 145.159 176.801 155.274 176.801 155.274C176.801 155.274 175.166 158.054 175.166 160.345C176.475 165.741 181.205 171.305 207.054 171.468C232.902 171.631 238.332 162.142 238.487 160.345C238.641 158.547 236.856 156.583 235.567 154.781C244.542 153.473 254.66 142.68 254.66 142.68C254.66 142.68 256.291 144.314 259.068 141.698C261.846 139.081 265.433 137.936 271.797 135.645C278.161 133.355 282.728 127.795 284.85 124.033C286.481 121.141 292.449 117.383 295.122 115.794C296.108 115.21 296.96 114.426 297.625 113.491C300.348 109.679 306.153 99.693 297.575 93.4439ZM296.741 104.467C296.741 104.467 294.943 111.598 288.742 114.051C282.54 116.505 282.069 120.739 282.069 120.739C282.069 120.739 277.281 129.3 264.336 131.156C264.336 131.156 273.094 117.086 274.762 106.619C276.284 106.456 279.441 105.854 280.909 99.8602C282.377 93.8661 288.742 92.7542 293.475 96.0438C298.209 99.3335 296.761 104.467 296.761 104.467H296.741Z" fill="#CBE2ED"/>
<path d="M264.598 99.6552C263.895 100.003 263.166 100.338 262.413 100.658C246.477 107.534 220.708 109.47 207.316 109.47C193.282 109.47 178.268 108.324 167.659 106.038C159.676 104.178 153.625 102.414 149.079 100.658C141.155 97.6028 137.818 94.5681 136.872 91.0987C136.604 90.0667 136.513 88.997 136.601 87.9344C136.656 87.2258 136.847 86.5346 137.164 85.8988C139.991 80.0468 152.319 76.4311 152.319 76.4311C152.319 76.4311 173.21 67.1097 212.7 68.7441C275.054 71.1977 277.11 86.8393 277.11 86.8393C277.277 87.1771 277.364 87.549 277.364 87.9261C277.435 89.8238 276.009 94.0498 264.598 99.6552Z" fill="#A7BAC4"/>
<path d="M262.426 100.658C246.49 107.534 220.72 109.47 207.329 109.47C193.295 109.47 178.281 108.324 167.671 106.038C159.689 104.178 153.638 102.414 149.092 100.658C181.272 84.3017 242.078 88.2268 262.426 100.658Z" fill="#835353"/>
<g filter="url(#filter0_d_206_2136)">
<path d="M230.221 122.983C231.789 133.723 232.177 139.513 231.643 149.285C238.343 149.694 242.363 149.477 250.125 147.863C250.617 138.704 250.493 133.104 247.282 121.561C240.626 123.238 236.85 123.535 230.221 122.983Z" fill="#018FD1"/>
<path d="M230.221 122.983C231.789 133.723 232.177 139.513 231.643 149.285C238.343 149.694 242.363 149.477 250.125 147.863C250.617 138.704 250.493 133.104 247.282 121.561C240.626 123.238 236.85 123.535 230.221 122.983Z"/>
</g>
<path d="M232.354 107.343C232.827 106.633 234.06 105.637 235.197 107.343C236.619 109.476 239.462 125.826 240.173 125.826" stroke="white" stroke-width="0.710884" stroke-linecap="round"/>
<defs>
<filter id="filter0_d_206_2136" x="228.799" y="121.561" width="22.9637" height="30.7469" filterUnits="userSpaceOnUse" color-interpolation-filters="sRGB">
<feFlood flood-opacity="0" result="BackgroundImageFix"/>
<feColorMatrix in="SourceAlpha" type="matrix" values="0 0 0 0 0 0 0 0 0 0 0 0 0 0 0 0 0 0 127 0" result="hardAlpha"/>
<feOffset dy="1.42177"/>
<feGaussianBlur stdDeviation="0.710884"/>
<feComposite in2="hardAlpha" operator="out"/>
<feColorMatrix type="matrix" values="0 0 0 0 0 0 0 0 0 0 0 0 0 0 0 0 0 0 0.25 0"/>
<feBlend mode="normal" in2="BackgroundImageFix" result="effect1_dropShadow_206_2136"/>
<feBlend mode="normal" in="SourceGraphic" in2="effect1_dropShadow_206_2136" result="shape"/>
</filter>
<radialGradient id="paint0_radial_206_2136" cx="0" cy="0" r="1" gradientUnits="userSpaceOnUse" gradientTransform="translate(206.761 154.973) rotate(-176.485) scale(99.3988 32.8762)">
<stop stop-color="#A7BAC3"/>
<stop offset="0.96" stop-color="#CBE2ED"/>
</radialGradient>
</defs>
</svg>
