<svg id="Lag_1" data-name="Lag 1" xmlns="http://www.w3.org/2000/svg" viewBox="0 0 500 55.79">
  <g>
    <rect x="406.41" y="2.13" width="14.33" height="45.17" rx="3.4" fill="#da9e92"/>
    <rect x="423.17" y="2.13" width="14.9" height="52.59" rx="3.4" transform="translate(1.85 -20.52) rotate(2.74)" fill="#da9e92"/>
    <rect x="439.86" y="2.13" width="12.32" height="46.83" rx="3.4" transform="translate(4.33 -41.49) rotate(5.35)" fill="#da9e92"/>
    <rect x="455.84" y="1.88" width="12.08" height="34.23" rx="3.4" transform="translate(3.79 -43) rotate(5.35)" fill="#da9e92"/>
    <g>
      <rect x="409.28" y="35.13" width="8.6" height="11.07" rx="1.72" fill="#f7dedc"/>
      <rect x="409.28" y="35.13" width="8.6" height="8.88" rx="1.72" fill="#f4c8c3"/>
    </g>
    <g>
      <rect x="424.29" y="41.36" width="10.42" height="12.21" rx="1.72" transform="translate(2.75 -20.44) rotate(2.74)" fill="#f7dedc"/>
      <rect x="424.34" y="41.36" width="10.42" height="10.13" rx="1.72" transform="translate(2.7 -20.45) rotate(2.74)" fill="#f4c8c3"/>
    </g>
    <g>
      <rect x="440.25" y="35.76" width="8.6" height="11.07" rx="1.72" transform="translate(5.79 -41.29) rotate(5.35)" fill="#f7dedc"/>
      <rect x="440.35" y="35.76" width="8.6" height="8.88" rx="1.72" transform="translate(5.69 -41.3) rotate(5.35)" fill="#f4c8c3"/>
    </g>
    <g>
      <rect x="457.31" y="22.44" width="8.01" height="11.07" rx="1.72" transform="translate(4.62 -42.91) rotate(5.35)" fill="#f7dedc"/>
      <rect x="457.41" y="22.45" width="8.01" height="8.88" rx="1.72" transform="translate(4.52 -42.92) rotate(5.35)" fill="#f4c8c3"/>
    </g>
    <path d="M406.59,11.15v-4a2.87,2.87,0,0,1,2.85-2.87H466a2.56,2.56,0,0,1,2.63,2.85v4C458.6,11.15,415.93,11.15,406.59,11.15Z" fill="#da9e92"/>
  </g>
  <g>
    <rect x="79.01" y="2.38" width="14.33" height="45.17" rx="3.4" transform="translate(172.34 49.93) rotate(-180)" fill="#da9e92"/>
    <rect x="61.67" y="2.38" width="14.9" height="52.59" rx="3.4" transform="translate(139.53 54.02) rotate(177.26)" fill="#da9e92"/>
    <rect x="47.56" y="2.38" width="12.32" height="46.83" rx="3.4" transform="translate(109.62 46.47) rotate(174.65)" fill="#da9e92"/>
    <rect x="31.83" y="2.13" width="12.08" height="34.23" rx="3.4" transform="translate(77.37 34.88) rotate(174.65)" fill="#da9e92"/>
    <g>
      <rect x="81.87" y="35.39" width="8.6" height="11.07" rx="1.72" transform="translate(172.34 81.84) rotate(-180)" fill="#f7dedc"/>
      <rect x="81.87" y="35.39" width="8.6" height="8.88" rx="1.72" transform="translate(172.34 79.66) rotate(-180)" fill="#f4c8c3"/>
    </g>
    <g>
      <rect x="65.03" y="41.61" width="10.42" height="12.21" rx="1.72" transform="translate(142.68 92.03) rotate(177.26)" fill="#f7dedc"/>
      <rect x="64.98" y="41.61" width="10.42" height="10.13" rx="1.72" transform="translate(142.53 89.95) rotate(177.26)" fill="#f4c8c3"/>
    </g>
    <g>
      <rect x="50.9" y="36.01" width="8.6" height="11.07" rx="1.72" transform="translate(114.03 77.76) rotate(174.65)" fill="#f7dedc"/>
      <rect x="50.8" y="36.02" width="8.6" height="8.88" rx="1.72" transform="translate(113.73 75.6) rotate(174.65)" fill="#f4c8c3"/>
    </g>
    <g>
      <rect x="34.43" y="22.7" width="8.01" height="11.07" rx="1.72" transform="translate(79.33 52.75) rotate(174.65)" fill="#f7dedc"/>
      <rect x="34.33" y="22.7" width="8.01" height="8.88" rx="1.72" transform="translate(79.03 50.59) rotate(174.65)" fill="#f4c8c3"/>
    </g>
    <path d="M31.05,11.15l0-2.59A2.87,2.87,0,0,1,33.94,5.7H90.47a2.87,2.87,0,0,1,2.86,2.86v2.59Z" fill="#da9e92"/>
  </g>
</svg>
