<?xml version="1.0" standalone="no"?>
<!DOCTYPE svg PUBLIC "-//W3C//DTD SVG 20010904//EN"
 "http://www.w3.org/TR/2001/REC-SVG-20010904/DTD/svg10.dtd">
<svg version="1.0" xmlns="http://www.w3.org/2000/svg"
 width="860.000000pt" height="862.000000pt" viewBox="0 0 860.000000 862.000000"
 preserveAspectRatio="xMidYMid meet">
<metadata>
Created by potrace 1.16, written by Peter Selinger 2001-2019
</metadata>
<g transform="translate(0.000000,862.000000) scale(0.100000,-0.100000)"
fill="#ffffff" stroke="none">
<path d="M3965 8574 c-287 -29 -500 -65 -718 -119 -1591 -401 -2824 -1693
-3146 -3300 -111 -551 -111 -1159 0 -1710 337 -1679 1665 -3007 3344 -3344
322 -65 442 -76 855 -76 413 0 533 11 855 76 1679 337 3007 1665 3344 3344 65
322 76 442 76 855 0 413 -11 533 -76 855 -337 1679 -1665 3007 -3344 3344
-302 61 -428 73 -805 76 -190 1 -363 1 -385 -1z m625 -104 c878 -65 1677 -384
2368 -946 125 -101 465 -441 566 -566 619 -762 956 -1691 956 -2639 l0 -136
-90 -12 c-114 -15 -224 -49 -320 -101 -229 -123 -304 -145 -500 -145 -191 0
-258 17 -454 113 -83 40 -188 84 -233 97 -172 50 -378 52 -553 5 -41 -12 -138
-52 -215 -89 -209 -103 -311 -131 -475 -131 -164 0 -265 28 -475 131 -158 77
-243 103 -386 119 -192 21 -383 -17 -580 -115 -60 -31 -114 -53 -119 -50 -8 5
-153 208 -174 243 -5 9 10 33 46 70 287 303 236 792 -107 1037 -125 90 -248
127 -415 126 -120 0 -193 -16 -295 -65 -149 -71 -255 -175 -326 -321 -55 -113
-72 -190 -72 -315 0 -121 17 -200 67 -305 l33 -70 79 -18 c54 -11 135 -44 254
-102 191 -92 256 -113 372 -122 l76 -6 62 -115 c33 -63 58 -117 55 -120 -12
-12 -218 18 -292 43 -43 14 -116 48 -163 75 -94 53 -181 90 -280 117 -51 14
-102 18 -245 17 -167 0 -187 -2 -269 -27 -49 -15 -154 -61 -235 -103 -195
-100 -262 -117 -451 -117 -206 0 -250 13 -511 150 -154 80 -294 109 -494 100
-181 -8 -303 -43 -455 -132 -41 -24 -105 -55 -141 -69 l-66 -25 -7 106 c-9
154 -7 378 4 533 65 878 384 1677 946 2368 101 125 441 465 566 566 615 500
1320 810 2083 916 280 39 598 50 865 30z m-984 -3324 c87 -44 154 -112 197
-204 29 -61 32 -76 32 -162 0 -88 -3 -101 -34 -165 -43 -87 -110 -153 -198
-197 -61 -30 -76 -33 -158 -33 -80 0 -97 3 -157 32 -130 61 -214 171 -238 310
-33 193 108 403 306 453 73 18 171 4 250 -34z m-2542 -1096 c75 -19 115 -37
287 -127 155 -81 288 -108 493 -100 194 7 287 34 466 133 121 67 223 101 349
116 190 22 374 -16 541 -112 171 -97 283 -130 473 -137 227 -9 321 13 562 133
83 41 176 81 208 89 248 62 420 38 697 -95 226 -108 290 -124 500 -124 210 0
274 16 500 124 233 112 379 143 561 120 130 -17 201 -41 372 -125 204 -101
281 -120 492 -119 207 0 273 17 490 124 156 77 257 111 369 124 l49 6 -7 -115
c-4 -64 -9 -122 -12 -129 -3 -8 -32 -15 -82 -19 -126 -10 -226 -41 -372 -116
-202 -102 -273 -123 -450 -128 -131 -4 -154 -2 -245 21 -67 17 -141 47 -225
89 -225 115 -339 142 -559 134 -181 -6 -272 -31 -451 -121 -193 -98 -265 -118
-440 -123 -132 -4 -154 -2 -245 21 -67 18 -146 49 -240 96 -77 38 -180 82
-230 97 -84 25 -102 27 -275 27 -173 0 -191 -2 -275 -27 -49 -15 -157 -61
-240 -103 -207 -103 -271 -118 -474 -112 -189 6 -240 20 -419 115 -216 114
-322 139 -559 130 -188 -6 -249 -23 -458 -128 -217 -108 -278 -123 -484 -117
-189 6 -239 20 -426 118 -215 112 -308 134 -536 128 -195 -5 -275 -26 -458
-120 -73 -38 -135 -68 -136 -66 -2 2 -9 51 -17 110 -15 107 -14 108 6 114 61
18 161 63 236 105 96 54 205 93 300 108 94 14 271 5 364 -19z m-65 -346 c83
-19 173 -55 268 -109 176 -100 306 -129 532 -122 196 6 273 27 479 133 191 97
262 116 442 116 179 0 249 -18 455 -121 229 -115 275 -126 510 -125 178 0 196
2 280 28 50 15 144 56 210 91 201 106 365 143 552 124 129 -13 192 -33 358
-114 239 -116 348 -141 568 -132 168 7 261 33 452 126 223 110 354 139 541
120 132 -14 196 -34 374 -120 232 -111 281 -123 505 -123 167 0 187 2 270 27
50 15 158 61 240 102 157 79 270 115 357 115 l49 0 -6 -37 c-14 -84 -46 -259
-51 -275 -3 -12 -15 -18 -33 -18 -69 0 -226 -51 -338 -110 -213 -112 -354
-147 -541 -137 -141 8 -228 34 -397 117 -225 111 -318 134 -525 133 -181 -1
-284 -27 -477 -123 -79 -38 -182 -82 -230 -97 -80 -24 -103 -27 -243 -27 -140
1 -164 3 -245 28 -49 15 -136 52 -193 82 -247 131 -487 170 -732 119 -98 -21
-173 -50 -284 -109 -180 -95 -294 -126 -467 -126 -171 0 -295 35 -464 129
-310 174 -682 173 -995 -4 -177 -100 -310 -132 -508 -122 -153 7 -234 31 -397
117 -158 83 -265 118 -407 132 -205 22 -414 -19 -584 -113 l-71 -39 -31 143
c-23 104 -28 143 -19 146 7 2 71 34 142 71 141 74 236 107 342 120 85 11 228
3 312 -16z m-59 -414 c102 -17 154 -36 325 -121 219 -109 273 -123 495 -123
222 0 276 14 495 124 88 44 194 89 235 100 149 41 358 36 498 -10 31 -11 125
-54 207 -95 208 -105 265 -119 485 -119 218 0 278 15 475 114 163 81 228 105
344 125 106 19 176 19 285 0 116 -20 188 -46 336 -122 147 -75 276 -111 425
-120 195 -11 354 26 565 132 196 99 343 134 508 121 136 -10 233 -40 397 -121
175 -87 298 -123 450 -132 198 -11 357 26 571 137 116 59 258 110 307 110 18
0 18 -1 -50 -223 l-36 -117 -71 -21 c-38 -12 -124 -49 -190 -84 -253 -132
-463 -163 -694 -104 -42 10 -151 55 -242 99 -190 92 -283 118 -446 127 -195
10 -369 -30 -551 -128 -188 -101 -380 -142 -557 -121 -125 16 -207 43 -351
115 -199 99 -340 137 -515 137 -178 0 -326 -40 -515 -140 -60 -32 -150 -71
-200 -86 -81 -24 -106 -27 -240 -27 -211 0 -252 12 -520 151 -44 23 -120 53
-170 68 -83 26 -103 28 -270 28 -227 0 -279 -13 -500 -124 -215 -107 -279
-124 -465 -124 -206 1 -250 14 -515 152 -131 68 -235 93 -405 99 -163 6 -281
-12 -400 -61 -36 -14 -67 -22 -71 -18 -9 10 -79 224 -79 242 0 20 156 103 247
130 132 40 273 50 403 30z m130 -458 c52 -18 131 -52 175 -78 105 -60 178 -90
276 -114 252 -60 512 -23 739 104 180 102 303 132 506 124 109 -5 144 -10 224
-37 52 -17 131 -51 175 -77 153 -88 280 -127 448 -140 197 -14 376 28 579 135
146 77 260 111 400 118 188 10 298 -17 523 -128 155 -76 243 -103 385 -119
205 -24 375 12 602 126 70 35 167 76 215 91 78 24 105 27 238 27 191 1 262
-17 470 -119 165 -82 251 -109 395 -125 201 -23 430 25 608 127 77 44 172 87
179 80 6 -6 -73 -197 -123 -301 -38 -77 -40 -79 -119 -122 -44 -24 -123 -58
-175 -75 -85 -28 -111 -32 -240 -36 -131 -4 -154 -2 -245 21 -67 17 -141 47
-225 90 -223 114 -343 142 -567 133 -172 -6 -266 -32 -443 -121 -193 -98 -265
-118 -440 -123 -131 -4 -154 -2 -245 21 -67 17 -141 46 -225 89 -225 115 -338
142 -559 134 -185 -6 -269 -29 -476 -133 -207 -103 -271 -118 -474 -112 -189
6 -239 20 -426 118 -217 113 -310 135 -542 127 -199 -6 -256 -21 -468 -127
-218 -109 -278 -124 -484 -118 -188 6 -240 20 -418 114 -205 109 -303 134
-511 134 -82 0 -165 -6 -206 -15 -81 -17 -69 -28 -131 112 -69 157 -70 146 20
178 128 47 177 54 340 51 137 -3 158 -6 245 -34z m-165 -392 c115 -14 241 -56
352 -119 186 -106 312 -136 542 -128 195 6 280 29 466 127 151 79 232 106 361
121 186 20 376 -21 551 -120 186 -106 312 -136 542 -128 193 5 280 29 456 122
201 106 373 144 555 124 133 -15 194 -35 355 -113 238 -117 347 -142 568 -133
168 7 262 33 452 127 162 80 245 107 370 119 187 19 315 -9 545 -120 204 -97
283 -119 455 -126 175 -7 294 14 468 82 21 9 -45 -108 -160 -282 -54 -83 -81
-115 -101 -120 -15 -5 -90 -8 -167 -7 -178 1 -250 20 -440 113 -225 111 -318
135 -525 134 -181 -1 -281 -27 -490 -128 -214 -103 -277 -120 -460 -120 -181
0 -248 18 -445 115 -221 109 -316 133 -515 134 -189 0 -305 -30 -485 -124
-206 -108 -324 -137 -523 -127 -153 7 -234 31 -397 117 -158 83 -265 118 -407
132 -216 23 -417 -19 -608 -127 -177 -100 -310 -132 -508 -122 -153 7 -234 31
-397 117 -191 100 -340 140 -521 140 l-61 0 -63 113 c-92 164 -100 178 -100
182 0 5 96 24 145 28 79 7 101 7 190 -3z m35 -430 c102 -16 153 -36 325 -121
220 -109 275 -123 495 -123 222 0 276 14 495 124 184 92 270 118 411 127 190
11 310 -19 539 -136 197 -100 256 -115 475 -115 219 0 276 14 485 118 165 82
241 108 365 127 181 26 348 -8 565 -116 174 -87 297 -123 450 -132 192 -11
362 28 545 124 248 130 459 161 694 102 49 -12 140 -49 231 -94 187 -93 298
-124 473 -132 67 -3 122 -9 122 -12 0 -6 -145 -180 -217 -261 l-40 -44 -64 17
c-35 10 -138 53 -229 97 -190 92 -284 118 -446 127 -195 10 -369 -30 -551
-128 -230 -123 -455 -156 -681 -98 -42 10 -151 55 -242 98 -192 92 -288 120
-446 128 -204 11 -353 -25 -574 -139 -183 -93 -254 -111 -440 -111 -205 0
-249 13 -515 151 -44 23 -120 53 -170 68 -83 26 -103 28 -270 28 -227 0 -279
-13 -500 -124 -182 -91 -271 -118 -420 -127 -176 -10 -337 30 -499 124 -43 25
-118 59 -165 77 l-86 31 -110 147 c-60 81 -118 161 -128 177 l-18 31 38 0 c21
0 67 -5 103 -10z m2050 -458 c52 -18 131 -52 175 -78 153 -88 280 -127 448
-140 194 -14 379 29 570 131 170 90 296 125 457 125 164 0 266 -28 475 -131
159 -78 244 -104 390 -119 199 -22 383 17 597 126 70 35 167 76 215 91 80 24
103 27 243 27 193 0 262 -17 443 -109 70 -36 159 -76 198 -89 l69 -23 -110
-107 c-62 -58 -115 -106 -119 -106 -5 0 -38 13 -74 30 -135 61 -213 75 -412
74 -166 0 -187 -2 -270 -27 -49 -15 -144 -55 -210 -89 -199 -101 -300 -128
-479 -128 -158 0 -272 30 -436 113 -224 115 -343 143 -567 134 -175 -6 -268
-32 -453 -126 -208 -106 -248 -116 -465 -116 -171 0 -184 2 -260 28 -44 16
-130 55 -192 88 -191 102 -296 129 -497 129 -214 0 -307 -24 -511 -130 -169
-88 -241 -111 -380 -117 l-111 -6 -99 84 c-55 45 -174 157 -265 247 -151 149
-160 161 -110 132 93 -53 161 -81 256 -105 257 -66 521 -31 754 99 183 103
277 126 485 122 137 -3 158 -6 245 -34z m-70 -408 c87 -19 158 -48 260 -105
184 -104 310 -134 539 -126 193 5 280 29 456 122 199 105 369 144 547 125 130
-13 202 -35 358 -112 80 -39 169 -79 198 -89 90 -31 208 -49 322 -49 187 0
331 38 515 135 260 138 530 157 782 54 l54 -22 -21 -22 c-11 -12 -80 -65 -153
-119 l-132 -96 -110 -4 c-183 -7 -285 -36 -482 -135 -68 -33 -162 -73 -210
-88 -78 -23 -104 -26 -238 -27 -188 0 -255 17 -450 113 -221 110 -316 134
-515 135 -189 0 -305 -30 -485 -124 -206 -108 -324 -137 -523 -127 -153 7
-234 31 -397 117 -155 81 -264 117 -402 133 -198 22 -421 -20 -579 -108 l-61
-34 -95 58 c-53 32 -128 81 -167 109 l-72 50 53 7 c103 14 224 57 353 125 140
74 234 107 342 120 85 11 227 3 313 -16z m20 -429 c36 -9 142 -54 235 -101
232 -114 283 -128 505 -128 219 0 276 14 485 118 165 82 241 108 365 127 182
26 346 -7 565 -116 175 -87 298 -123 450 -132 192 -11 362 28 545 124 113 59
245 107 325 118 65 9 57 2 -80 -75 -303 -169 -661 -312 -998 -400 l-88 -23
-137 66 c-161 78 -262 105 -418 114 -201 11 -357 -26 -559 -132 -210 -109
-309 -131 -485 -104 -238 37 -359 68 -440 115 -99 56 -238 102 -363 119 -56 7
-120 21 -142 30 -94 40 -285 130 -344 163 l-64 35 34 18 c44 24 177 67 243 79
73 13 289 4 366 -15z m1862 -419 c83 -16 148 -37 228 -73 53 -25 54 -26 28
-33 -47 -14 -327 -49 -468 -60 -160 -12 -500 -13 -500 -2 0 11 188 109 256
133 138 48 315 62 456 35z"/>
<path d="M1304 5456 c-18 -14 -19 -33 -22 -580 l-2 -565 42 -28 c110 -69 279
-121 428 -129 104 -6 184 4 297 37 l73 22 0 96 c0 151 20 141 -286 141 l-254
0 0 500 c0 483 -1 500 -19 510 -31 16 -233 13 -257 -4z"/>
<path d="M2279 5444 l-24 -26 -3 -555 c-2 -528 -2 -555 15 -549 10 3 63 21
118 41 55 19 110 35 122 35 56 0 53 -31 53 515 l0 503 -26 31 c-26 31 -26 31
-128 31 -97 0 -104 -1 -127 -26z"/>
<path d="M4304 5446 c-14 -22 -15 -74 -12 -468 4 -424 5 -446 26 -508 33 -99
26 -95 128 -76 49 9 131 16 183 16 l93 0 -39 38 c-80 78 -77 61 -83 567 -3
248 -7 451 -8 453 -1 1 -63 2 -137 2 -132 0 -135 -1 -151 -24z"/>
<path d="M5136 5448 c-14 -20 -16 -76 -16 -442 0 -295 -4 -430 -12 -459 -18
-58 -82 -124 -151 -151 l-57 -23 62 -23 c34 -12 111 -47 171 -76 61 -30 118
-54 128 -54 40 0 111 116 139 226 19 74 20 107 18 549 l-3 470 -132 3 c-127 2
-132 2 -147 -20z"/>
<path d="M5711 5451 c-8 -13 -11 -230 -11 -655 l0 -636 38 0 c53 0 185 35 233
62 l39 22 -1 585 c-1 322 -4 597 -8 611 -7 25 -7 25 -143 28 -127 2 -138 1
-147 -17z"/>
<path d="M6334 5460 c-55 -22 -54 -12 -54 -568 l0 -514 24 6 c50 12 164 26
224 26 l62 0 0 405 0 405 108 0 c164 0 255 -32 342 -120 192 -191 143 -534
-94 -650 -33 -17 -87 -35 -120 -40 -59 -10 -85 -20 -50 -20 34 0 209 -66 300
-113 l89 -47 38 27 c61 42 159 154 195 220 97 184 96 442 -3 631 -90 172 -245
295 -431 342 -68 18 -110 20 -343 19 -146 0 -276 -4 -287 -9z"/>
</g>
</svg>
