<svg xmlns="http://www.w3.org/2000/svg" xmlns:xlink="http://www.w3.org/1999/xlink" viewBox="0 0 1280 301.58">
  <g id="Layer_2" data-name="Layer 2">
    <image width="5338" height="1232" transform="translate(0 6) scale(0.24)" xlink:href="skylinetest.png"/>
  </g>
  <g id="Layer_1" data-name="Layer 1">
    <path d="M471.2,22.58c-.2,20.4-2.1,29.2-6.9,32-2,1.2-3.3,2.7-3.3,4,0,1.5-.7,2-2.5,2-2.3,0-2.5.4-2.5,4.7,0,2.7-.9,31.8-2,64.8s-2,63-2,66.7v6.8h-3.5c-3.4,0-3.5-.1-3.5-3.9,0-2.2-.6-4.4-1.5-5.1a6.88,6.88,0,0,1-1.5-4.5c0-4.2-.9-6.5-2.5-6.5-.7,0-2.9-2-4.9-4.4-2.9-3.6-4.5-4.6-8.6-5.5-6.3-1.4-11.1.3-13.8,4.9l-1.9,3.1-1.7-4.1a21.51,21.51,0,0,1-1.6-6c0-1.3-2.3-3.5-6.7-6.5-3.7-2.5-7.3-4.5-7.9-4.5-2.3,0-13.5,9.8-16.4,14.3-2,3.3-3.6,4.7-4.8,4.5-1.4-.3-1.8-1.7-2-8.1l-.3-7.9-9.8.7c-5.5.4-12.5,1-15.8,1.4l-5.8.6-.3,16.2-.2,16.3H324l-2.6,4.2a33.27,33.27,0,0,1-3.4,4.8c-1.5,1.2-4,8.1-4.1,11.2a47.27,47.27,0,0,1-.7,7.2c-.6,3.5-.9,3.7-2.1,2.3-1-1.3-3.1-1.7-8.8-1.7-7,0-7.5.1-7,2,.4,1.5,0,2-1.4,2-1,0-1.9.4-1.9,1s-1.1,1-2.5,1c-2.2,0-2.5.4-2.5,3.5s-.2,3.5-3,3.5h-3v-13.8l-13.2-.8-13.2-.9-.9-4.3c-.4-2.3-1.4-4.2-2.1-4.2s-2.1-2.2-3.3-4.9l-2-4.9-10.9-.4c-6-.3-11.5-.3-12.1,0s-2.4,2.8-3.8,5.8c-2,4.3-3,5.4-4.9,5.4-1.7,0-2.6.7-3,2.5-.5,2-1.3,2.5-3.6,2.5s-3.1.5-3.6,2.4c-.7,2.8-2.9,3.6-9.9,3.6-9.5,0-12.3.9-13,4.1-.4,1.6-1.1,3.1-1.6,3.4s-.9,3.5-.9,7.1c0,6.4,0,6.4-2.9,6.4-1.6,0-3.1-.6-3.5-1.5s-1.8-1.5-3.3-1.5c-2.8,0-2.8-.1-2.8-5.9,0-3.3-.3-6.3-.7-6.6s-2.7-.7-5.3-.8l-4.6-.2-1.7,5c-2,6-5.2,7.5-5.2,2.6,0-2.4-.4-3.1-2-3.1-1.1,0-2-.3-2.1-.8s-.4-5.7-1-11.7-1.2-14.7-1.6-19.3c-.5-7.3-.8-8.2-2.5-8.2-1.3,0-1.8-.5-1.5-1.3s-.1-2.4-.9-3.8a17,17,0,0,1-1.5-5.9c-.1-1.9-.5,0-.9,4.4-.6,5.6-1.4,8.6-3,10.8-2.5,3.4-3.6,10.3-4.6,28l-.6,11.8-3.1,1.5a24.74,24.74,0,0,1-3.4,1.5,18.48,18.48,0,0,1-.4-3.8c-.2-9.3-3.4-11.9-6.4-5.2l-1.8,4h-8.4c-7.9,0-8.4.1-9.5,2.5-.6,1.4-1.4,2.5-1.8,2.5s-1,.9-1.3,2.1c-1,3.9-2.4,1-1.9-4.1l.5-5H85.6c-2.3,0-3.5-.4-3.1-1,1.1-1.7-1.5-4.1-3.4-3.1-2.5,1.3-4.1.2-4.1-3,0-2.9,0-2.9-6.1-2.9-7.3,0-13.7,1.7-14.1,3.7-.2.8-2,2.1-4,2.8-3.4,1.1-3.7,1.1-4.2-.9a54.38,54.38,0,0,1-.6-8.9c0-4-.4-6.6-.9-6.2s-1.1-1.9-1.3-5.2l-.3-5.8-.9,6.2c-.5,4-1.3,6.3-2.1,6.3s-2.6,1.2-4.2,2.8c-2.7,2.5-3.1,3.6-3.7,11.2-.8,9-2.9,15-5.2,15a2.39,2.39,0,0,0-2,1.5c-.3.8-2.1,1.9-3.9,2.5-2.2.7-3.5,1.9-3.9,3.5-.4,1.4-1,2.4-1.4,2.3a7.33,7.33,0,0,0-2.2.4c-3.6,1.3-9.9,2.8-11.9,2.8s-2.1.2-2.1,20.5v20.5H1280v-23.8l-3.9-1.5c-3.6-1.5-4.8-1.5-15.3.3-6.2,1.1-11.6,2-12,2s-1.6,1.6-2.8,3.6l-2.1,3.7-16.7-.7c-9.1-.4-17-1-17.4-1.2s-.8-3-.8-5.9a24.06,24.06,0,0,0-1.7-9l-1.7-3.5h-8.2c-4.5,0-11.8.5-16.1,1-8,1.1-9.3,1.9-13.5,7.9l-1.5,2.1-12.4-2.8-12.4-2.8-.7-3.9c-.4-2.2-.7-12.3-.7-22.5s-.4-26.9-.8-37.2c-.6-18-.7-18.7-2.7-19s-2.1-1-2.6-14.3l-.5-14-5.5.3c-5.4.2-5.5.2-7.7-3.7s-2.5-3.9-10.8-5.5c-10.8-2-17.8-.8-20,3.5-1.3,2.4-2.3,2.8-13,4.4l-11.5,1.7v17.1c0,16.9,0,17-2,15.2a6,6,0,0,1-2-3.3c0-1.2-.9-1.3-4.6-.8-2.6.3-6.4.6-8.5.6-3.3,0-4,.4-4.5,2.6l-.6,2.5-2.2-2c-2.3-2.2-8.4-2.9-10.1-1.2-.6.5-3.5,1.1-6.5,1.3l-5.5.3-.7-4a52.56,52.56,0,0,1-.7-7.8c-.1-3.4-.3-3.7-3-3.7-2.1,0-3.2-.6-3.6-1.9-.9-3-9.2-5.4-13.3-4-1.9.7-3.2,1.8-3.2,2.8,0,1.9-3.8,4.1-7,4.1-1.7,0-2,.7-2,4.5v4.5H973.3c-17.6,0-16.1,1.3-16.7-14.9-.3-7.5-.8-16.2-1.1-19.4l-.7-5.7h-4.4c-4,0-4.5.3-5.8,3.4-1.9,4.5-4.2,5.6-11.8,5.6h-6.3l-5.2,6.3-5.3,6.2v11.1c0,13.6-.7,17.7-2.8,16.9s-4.2,1.3-4.2,4.1c0,1.3-.4,2.4-1,2.4s-1-2.5-1-5.5v-5.4l-3.6-.7c-3.3-.6-18.7-.1-22.3.8-1.1.2-1.5-.8-1.6-3.7-.1-3.3-.5-4.1-2.3-4.3-2.1-.3-2.2-.8-2.2-11.5,0-11-.1-11.4-4-19.4a43.33,43.33,0,0,1-4.6-14.9c-.7-7-1.7-6.8-2.8.7a62.57,62.57,0,0,1-3.1,10.5l-2.5,5.9v-5.2c0-2.8-.4-5.4-.8-5.7-1.5-.9-38.7-1.9-43.5-1.2l-4.7.7v40.5l-4.2-.5c-3.8-.5-4.3-.9-5-4.1a48.39,48.39,0,0,1-.8-9.4v-5.9l-8.2.6a67.53,67.53,0,0,1-11.2,0l-3.1-.5.3-6,.4-6.1-5.4.6a88.53,88.53,0,0,1-9.9.7h-4.6l-.6,4.2c-.3,2.4-1.1,4.4-1.6,4.6a1.91,1.91,0,0,0-1.1,1.7c0,.7-1.1,2-2.5,2.9-2.4,1.6-2.5,2.1-2.5,11.2,0,9.5,0,9.6-2.2,9a25.13,25.13,0,0,0-3-.6c-.5,0-.8-1.6-.8-3.5,0-3.4-.2-3.5-3.6-3.5-3.1,0-3.6.3-3.1,2,.3,1.1.1,2.3-.4,2.6s-.9,3.9-.9,8c0,6.1-.3,7.4-1.6,7.4-1,0-1.4-.6-1-1.5s-.7-2.9-2.1-4.6c-2.6-3.1-2.8-3.1-9-2.5l-6.3.7v-35.8l-20.2.4c-11.2.2-21.9.7-23.8,1.1l-3.5.8.4,20.9c.3,19.6.2,21.1-1.5,22.7-1.6,1.4-8.6,3.7-11.6,3.8-.5,0-.8-19.5-.8-43.4v-43.3l-5.2-.7c-8.3-.9-25.7-.7-27.9.4-1.8,1-1.9,2.3-1.9,22,0,12.9-.4,21.1-1,21.5s-4.1.3-8-.1l-6.9-.7-.3-10.6-.3-10.6-2.9-.3a15.86,15.86,0,0,0-6.7,1.3c-5.4,2.5-6,5.5-6.6,37.2-.3,15-1,27.3-1.4,27.3s-.9,1.1-.9,2.4a2.69,2.69,0,0,1-2,2.9c-1.8.5-2,1.4-2,9.4v8.8h-5.2c-5.1,0-5.3.1-7,3.7-1.4,2.9-2.4,3.8-4.3,3.8H561v-10.4c0-10.2,0-10.4-2.4-11-1.9-.5-2.5-1.4-2.8-3.9s-.8-3.3-2.5-3.5-2.3.3-2.8,2.6a4.18,4.18,0,0,1-2.6,3.5c-1.7.5-1.9,1.5-1.9,12.3,0,17-2,13.6-2.7-4.5l-.6-14.1h-4.3a21.7,21.7,0,0,1-6.8-1c-2.2-.8-2.6-1.6-2.6-4.9,0-2.2-.4-4.3-1-4.6a2.87,2.87,0,0,1-1-2.2c0-2.3-4.6-11.7-6.5-13.3a12,12,0,0,0-4.8-1.9l-3.2-.7.3-6.2.4-6.2-10.4-.1c-5.7-.1-10.6-.1-11,0-1,.1-.8,6.2-1.7-53.3l-.8-50.9-2.7-1.9c-1.4-1.1-2.6-2.5-2.6-3.1s-1.1-2-2.5-3.2c-1.7-1.3-3.1-4-4.1-8-.8-3.3-2.1-6.5-2.9-7-.9-.8-1.6-5.8-2.3-17l-.9-16Z" fill="#5c6651"/>
  </g>
</svg>
